<svg width="552" height="675" viewBox="0 0 552 675" fill="none" xmlns="http://www.w3.org/2000/svg">
<g style="mix-blend-mode:multiply" opacity="0.2">
<rect width="90.1024" height="19.5651" transform="matrix(1 0 0 -1 217.335 457.72)" fill="url(#paint0_linear_10_164)"/>
</g>
<g style="mix-blend-mode:multiply" opacity="0.2">
<rect width="90.1024" height="19.5651" transform="matrix(1 0 0 -1 325.458 457.72)" fill="url(#paint1_linear_10_164)"/>
</g>
<g style="mix-blend-mode:multiply" opacity="0.2">
<path d="M245.493 430.546H335.595V412.068H245.493V430.546Z" fill="url(#paint2_linear_10_164)"/>
</g>
<path d="M415.457 43.5771V18.1255L188.176 18.1255C175.145 18.1255 164.581 28.6893 164.581 41.7204V67.172L391.862 67.172C404.893 67.172 415.457 56.6082 415.457 43.5771Z" fill="white" stroke="url(#paint3_linear_10_164)" stroke-width="7.41758"/>
<rect width="25.2287" height="8.40955" transform="matrix(0 -1 -1 0 379.521 96.1095)" fill="url(#paint4_linear_10_164)"/>
<rect width="25.2287" height="8.40955" transform="matrix(0 -1 -1 0 216.135 96.1095)" fill="url(#paint5_linear_10_164)"/>
<rect width="25.2287" height="8.40955" transform="matrix(0 -1 -1 0 133.24 86.4986)" fill="url(#paint6_linear_10_164)"/>
<g filter="url(#filter0_i_10_164)">
<path d="M189.587 30.6532V33.67H200.621V30.6532H189.587ZM188.663 40.1113V43.1825H203.665V40.1113H188.663ZM194.397 36.9314V51.1457C194.397 51.5262 194.261 51.635 193.827 51.6621C193.365 51.6893 191.951 51.6621 190.565 51.6078C191 52.4775 191.544 53.8908 191.707 54.7877C193.718 54.8148 195.213 54.7061 196.3 54.2169C197.36 53.7005 197.686 52.8308 197.686 51.2001V36.9314H194.397ZM199.453 30.6532V31.3599C198.637 32.9906 196.762 35.6812 195.158 37.2304C195.675 37.6652 196.572 38.5621 197.006 39.1329C199.126 37.3391 201.437 34.4582 203.04 32.0937L200.92 30.4901L200.241 30.6532H199.453ZM178.308 34.7028V37.7196H187.086V34.7028H178.308ZM181.95 29.2943C181.107 34.7028 179.639 41.8779 178.471 46.1721L181.134 47.5854C182.412 42.6933 183.988 35.4094 185.021 29.6204L181.95 29.2943ZM179.884 45.7101C182.738 47.5854 186.189 50.4391 187.711 52.5047L189.668 49.8684C188.092 47.83 184.504 45.1937 181.678 43.4271L179.884 45.7101ZM185.972 34.7028V35.3007C185.428 43.8891 183.01 49.8955 178.389 52.3144C179.042 52.9395 179.911 54.1082 180.346 54.8964C185.727 51.5534 188.364 45.547 188.989 34.9474L187.059 34.6213L186.488 34.7028H185.972Z" fill="url(#paint7_linear_10_164)"/>
<path d="M189.587 30.6532V33.67H200.621V30.6532H189.587ZM188.663 40.1113V43.1825H203.665V40.1113H188.663ZM194.397 36.9314V51.1457C194.397 51.5262 194.261 51.635 193.827 51.6621C193.365 51.6893 191.951 51.6621 190.565 51.6078C191 52.4775 191.544 53.8908 191.707 54.7877C193.718 54.8148 195.213 54.7061 196.3 54.2169C197.36 53.7005 197.686 52.8308 197.686 51.2001V36.9314H194.397ZM199.453 30.6532V31.3599C198.637 32.9906 196.762 35.6812 195.158 37.2304C195.675 37.6652 196.572 38.5621 197.006 39.1329C199.126 37.3391 201.437 34.4582 203.04 32.0937L200.92 30.4901L200.241 30.6532H199.453ZM178.308 34.7028V37.7196H187.086V34.7028H178.308ZM181.95 29.2943C181.107 34.7028 179.639 41.8779 178.471 46.1721L181.134 47.5854C182.412 42.6933 183.988 35.4094 185.021 29.6204L181.95 29.2943ZM179.884 45.7101C182.738 47.5854 186.189 50.4391 187.711 52.5047L189.668 49.8684C188.092 47.83 184.504 45.1937 181.678 43.4271L179.884 45.7101ZM185.972 34.7028V35.3007C185.428 43.8891 183.01 49.8955 178.389 52.3144C179.042 52.9395 179.911 54.1082 180.346 54.8964C185.727 51.5534 188.364 45.547 188.989 34.9474L187.059 34.6213L186.488 34.7028H185.972Z" fill="black" fill-opacity="0.2"/>
<path d="M226.942 30.8163C228.274 31.3055 229.905 32.1752 230.666 32.8275L232.378 30.8435C231.508 30.1912 229.85 29.4302 228.573 29.0225L226.942 30.8163ZM213.108 31.8219V34.4038H234.063V31.8219H213.108ZM215.201 35.6812V37.774H223.219V35.6812H215.201ZM215.283 39.0513V44.0522H217.892V39.0513H215.283ZM229.415 35.0833C228.192 38.8611 225.665 42.0138 222.403 43.8891C223.056 44.4327 224.197 45.5742 224.659 46.1721C228.057 43.8891 230.856 40.2472 232.432 35.8171L229.415 35.0833ZM223.029 29.2943C223.382 38.3447 226.562 46.4167 231.318 46.4167C233.519 46.4167 234.498 45.5198 234.933 41.6605C234.172 41.3887 233.139 40.8179 232.487 40.22C232.351 42.5574 232.106 43.4814 231.508 43.4814C229.089 43.5086 226.29 36.7955 226.1 29.2943H223.029ZM215.283 39.0513V41.1441H220.392V42.8563H215.283V44.9491H223.056V39.0513H215.283ZM216.343 47.2321V50.7652C216.343 53.5646 217.158 54.4615 220.691 54.4615C221.425 54.4615 224.333 54.4615 225.067 54.4615C227.73 54.4615 228.627 53.6462 229.008 50.276C228.138 50.0858 226.752 49.6238 226.1 49.1345C225.991 51.2816 225.801 51.5806 224.768 51.5806C224.034 51.5806 221.642 51.5806 221.072 51.5806C219.794 51.5806 219.577 51.4719 219.577 50.7381V47.2321H216.343ZM218.87 46.4982C220.365 47.4223 222.132 48.8356 222.92 49.8684L225.176 47.9115C224.306 46.8787 222.485 45.5742 220.963 44.7588L218.87 46.4982ZM227.812 48.1833C229.579 49.8955 231.318 52.3144 231.943 53.9995L234.905 52.4775C234.172 50.7109 232.324 48.4279 230.53 46.7972L227.812 48.1833ZM212.701 47.2049C212.13 49.2433 210.988 51.2001 209.331 52.4231L212.048 54.2713C213.897 52.8036 214.957 50.5206 215.609 48.2377L212.701 47.2049ZM211.586 31.8219V35.953C211.586 38.698 211.369 42.503 209.086 45.2208C209.711 45.547 211.016 46.6341 211.478 47.2049C214.06 44.1337 214.576 39.3231 214.576 35.9802V31.8219H211.586Z" fill="url(#paint8_linear_10_164)"/>
<path d="M226.942 30.8163C228.274 31.3055 229.905 32.1752 230.666 32.8275L232.378 30.8435C231.508 30.1912 229.85 29.4302 228.573 29.0225L226.942 30.8163ZM213.108 31.8219V34.4038H234.063V31.8219H213.108ZM215.201 35.6812V37.774H223.219V35.6812H215.201ZM215.283 39.0513V44.0522H217.892V39.0513H215.283ZM229.415 35.0833C228.192 38.8611 225.665 42.0138 222.403 43.8891C223.056 44.4327 224.197 45.5742 224.659 46.1721C228.057 43.8891 230.856 40.2472 232.432 35.8171L229.415 35.0833ZM223.029 29.2943C223.382 38.3447 226.562 46.4167 231.318 46.4167C233.519 46.4167 234.498 45.5198 234.933 41.6605C234.172 41.3887 233.139 40.8179 232.487 40.22C232.351 42.5574 232.106 43.4814 231.508 43.4814C229.089 43.5086 226.29 36.7955 226.1 29.2943H223.029ZM215.283 39.0513V41.1441H220.392V42.8563H215.283V44.9491H223.056V39.0513H215.283ZM216.343 47.2321V50.7652C216.343 53.5646 217.158 54.4615 220.691 54.4615C221.425 54.4615 224.333 54.4615 225.067 54.4615C227.73 54.4615 228.627 53.6462 229.008 50.276C228.138 50.0858 226.752 49.6238 226.1 49.1345C225.991 51.2816 225.801 51.5806 224.768 51.5806C224.034 51.5806 221.642 51.5806 221.072 51.5806C219.794 51.5806 219.577 51.4719 219.577 50.7381V47.2321H216.343ZM218.87 46.4982C220.365 47.4223 222.132 48.8356 222.92 49.8684L225.176 47.9115C224.306 46.8787 222.485 45.5742 220.963 44.7588L218.87 46.4982ZM227.812 48.1833C229.579 49.8955 231.318 52.3144 231.943 53.9995L234.905 52.4775C234.172 50.7109 232.324 48.4279 230.53 46.7972L227.812 48.1833ZM212.701 47.2049C212.13 49.2433 210.988 51.2001 209.331 52.4231L212.048 54.2713C213.897 52.8036 214.957 50.5206 215.609 48.2377L212.701 47.2049ZM211.586 31.8219V35.953C211.586 38.698 211.369 42.503 209.086 45.2208C209.711 45.547 211.016 46.6341 211.478 47.2049C214.06 44.1337 214.576 39.3231 214.576 35.9802V31.8219H211.586Z" fill="black" fill-opacity="0.2"/>
<path d="M252.149 30.6532V33.6972H265.575V30.6532H252.149ZM251.442 40.3831V43.4814H266.119V40.3831H251.442ZM260.167 31.985V54.8148H263.265V31.985H260.167ZM254.051 32.0393V41.2528C254.051 44.9491 253.698 50.0043 250.817 53.1298C251.551 53.5374 252.747 54.4615 253.29 55.0051C256.633 51.4991 257.123 45.7644 257.123 41.28V32.0393H254.051ZM240.951 30.5717V33.5341H250.872V30.5717H240.951ZM243.995 38.9698V41.8507H247.746V48.6453H243.995V51.5262H250.545V38.9698H243.995ZM244.104 32.0121C243.452 36.1433 242.283 40.0841 240.353 42.6389C240.815 43.5901 241.386 45.6557 241.522 46.5254C244.322 43.1553 246.034 37.8555 247.067 32.6916L244.104 32.0121ZM242.609 38.9698V53.5374H245.3V38.9698H242.609Z" fill="url(#paint9_linear_10_164)"/>
<path d="M252.149 30.6532V33.6972H265.575V30.6532H252.149ZM251.442 40.3831V43.4814H266.119V40.3831H251.442ZM260.167 31.985V54.8148H263.265V31.985H260.167ZM254.051 32.0393V41.2528C254.051 44.9491 253.698 50.0043 250.817 53.1298C251.551 53.5374 252.747 54.4615 253.29 55.0051C256.633 51.4991 257.123 45.7644 257.123 41.28V32.0393H254.051ZM240.951 30.5717V33.5341H250.872V30.5717H240.951ZM243.995 38.9698V41.8507H247.746V48.6453H243.995V51.5262H250.545V38.9698H243.995ZM244.104 32.0121C243.452 36.1433 242.283 40.0841 240.353 42.6389C240.815 43.5901 241.386 45.6557 241.522 46.5254C244.322 43.1553 246.034 37.8555 247.067 32.6916L244.104 32.0121ZM242.609 38.9698V53.5374H245.3V38.9698H242.609Z" fill="black" fill-opacity="0.2"/>
<path d="M274.067 43.6717V46.6885H289.939V43.6717H274.067ZM288.118 43.6717V50.4935C288.118 53.6733 288.961 54.6246 291.624 54.6246C292.168 54.6246 293.5 54.6246 294.07 54.6246C296.435 54.6246 297.277 53.4287 297.603 48.9171C296.707 48.6725 295.185 48.1289 294.505 47.531C294.424 50.9283 294.315 51.4447 293.69 51.4447C293.418 51.4447 292.467 51.4447 292.249 51.4447C291.651 51.4447 291.57 51.336 291.57 50.4391V43.6717H288.118ZM282.982 29.2671V33.5613H286.324V29.2671H282.982ZM279.666 33.8603C279.312 37.176 278.497 39.0513 272.409 40.0298C273.034 40.6549 273.795 41.8779 274.067 42.6933C281.242 41.2528 282.601 38.4806 283.117 33.8603H279.666ZM286.053 33.969V38.2632C286.053 40.981 286.705 41.8779 289.695 41.8779C290.292 41.8779 292.113 41.8779 292.739 41.8779C294.913 41.8779 295.755 41.1441 296.081 38.2904C295.239 38.1001 293.88 37.6109 293.255 37.1489C293.173 38.7796 293.038 39.0242 292.385 39.0242C291.978 39.0242 290.537 39.0242 290.184 39.0242C289.396 39.0242 289.287 38.9426 289.287 38.2088V33.969H286.053ZM272.953 31.6316V37.2032H276.214V34.5397H293.092V36.9586H296.544V31.6316H272.953ZM281.215 40.6821V44.1609C281.215 46.8787 280.046 50.276 271.974 52.2601C272.708 52.9939 273.686 54.1354 274.149 54.9507C283.09 52.6406 284.503 48.0746 284.503 44.2424V40.6821H281.215Z" fill="url(#paint10_linear_10_164)"/>
<path d="M274.067 43.6717V46.6885H289.939V43.6717H274.067ZM288.118 43.6717V50.4935C288.118 53.6733 288.961 54.6246 291.624 54.6246C292.168 54.6246 293.5 54.6246 294.07 54.6246C296.435 54.6246 297.277 53.4287 297.603 48.9171C296.707 48.6725 295.185 48.1289 294.505 47.531C294.424 50.9283 294.315 51.4447 293.69 51.4447C293.418 51.4447 292.467 51.4447 292.249 51.4447C291.651 51.4447 291.57 51.336 291.57 50.4391V43.6717H288.118ZM282.982 29.2671V33.5613H286.324V29.2671H282.982ZM279.666 33.8603C279.312 37.176 278.497 39.0513 272.409 40.0298C273.034 40.6549 273.795 41.8779 274.067 42.6933C281.242 41.2528 282.601 38.4806 283.117 33.8603H279.666ZM286.053 33.969V38.2632C286.053 40.981 286.705 41.8779 289.695 41.8779C290.292 41.8779 292.113 41.8779 292.739 41.8779C294.913 41.8779 295.755 41.1441 296.081 38.2904C295.239 38.1001 293.88 37.6109 293.255 37.1489C293.173 38.7796 293.038 39.0242 292.385 39.0242C291.978 39.0242 290.537 39.0242 290.184 39.0242C289.396 39.0242 289.287 38.9426 289.287 38.2088V33.969H286.053ZM272.953 31.6316V37.2032H276.214V34.5397H293.092V36.9586H296.544V31.6316H272.953ZM281.215 40.6821V44.1609C281.215 46.8787 280.046 50.276 271.974 52.2601C272.708 52.9939 273.686 54.1354 274.149 54.9507C283.09 52.6406 284.503 48.0746 284.503 44.2424V40.6821H281.215Z" fill="black" fill-opacity="0.2"/>
<path d="M304.981 32.1208V35.5182H326.778V32.1208H304.981ZM303.459 49.6509V52.9395H328.327V49.6509H303.459ZM313.868 33.969V50.9555H317.592V33.969H313.868Z" fill="url(#paint11_linear_10_164)"/>
<path d="M304.981 32.1208V35.5182H326.778V32.1208H304.981ZM303.459 49.6509V52.9395H328.327V49.6509H303.459ZM313.868 33.969V50.9555H317.592V33.969H313.868Z" fill="black" fill-opacity="0.2"/>
<path d="M346.875 33.7244L345.353 36.8227H359.921V33.7244H346.875ZM350.463 39.7036V42.6661H359.214V39.7036H350.463ZM350.436 45.7101V48.754H359.568V45.7101H350.436ZM348.805 34.7572V54.8148H352.148V34.7572H348.805ZM347.5 29.5389C346.25 33.4798 344.103 37.3935 341.711 39.8395C342.418 40.3559 343.668 41.5246 344.185 42.1225C346.685 39.296 349.131 34.7843 350.653 30.3814L347.5 29.5389ZM340.325 29.403C338.939 33.2895 336.575 37.1489 334.074 39.6221C334.645 40.4374 335.569 42.2856 335.868 43.1009C338.858 40.0026 341.711 35.0289 343.478 30.4086L340.325 29.403ZM337.58 36.9043V54.7877H340.869V33.6428L340.842 33.6157L337.58 36.9043Z" fill="url(#paint12_linear_10_164)"/>
<path d="M346.875 33.7244L345.353 36.8227H359.921V33.7244H346.875ZM350.463 39.7036V42.6661H359.214V39.7036H350.463ZM350.436 45.7101V48.754H359.568V45.7101H350.436ZM348.805 34.7572V54.8148H352.148V34.7572H348.805ZM347.5 29.5389C346.25 33.4798 344.103 37.3935 341.711 39.8395C342.418 40.3559 343.668 41.5246 344.185 42.1225C346.685 39.296 349.131 34.7843 350.653 30.3814L347.5 29.5389ZM340.325 29.403C338.939 33.2895 336.575 37.1489 334.074 39.6221C334.645 40.4374 335.569 42.2856 335.868 43.1009C338.858 40.0026 341.711 35.0289 343.478 30.4086L340.325 29.403ZM337.58 36.9043V54.7877H340.869V33.6428L340.842 33.6157L337.58 36.9043Z" fill="black" fill-opacity="0.2"/>
<path d="M376.566 43.8076V52.3144H379.937V43.8076H376.566ZM369.419 35.953V38.7524H387.329V35.953H369.419ZM366.293 51.2001V54.081H390.482V51.2001H366.293ZM368.712 46.308V49.1074H388.335V46.308H368.712ZM373.767 37.5565C373.224 39.0785 372.218 41.1713 371.375 42.5574L374.066 43.3727C374.99 42.0953 376.186 40.22 377.246 38.3991L373.767 37.5565ZM368.223 41.3343L368.359 44.2424C372.952 44.1337 379.774 43.9706 386.16 43.726L386.324 41.0082C379.828 41.1441 372.789 41.3072 368.223 41.3343ZM380.997 39.8939C383.089 41.4702 385.644 43.7532 386.786 45.2752L389.34 43.5358C388.09 41.9594 385.427 39.7852 383.361 38.3175L380.997 39.8939ZM376.566 29.3215V33.0993H379.937V29.3215H376.566ZM366.375 31.0609V36.7412H369.554V34.0233H387.003V36.7412H390.346V31.0609H366.375Z" fill="url(#paint13_linear_10_164)"/>
<path d="M376.566 43.8076V52.3144H379.937V43.8076H376.566ZM369.419 35.953V38.7524H387.329V35.953H369.419ZM366.293 51.2001V54.081H390.482V51.2001H366.293ZM368.712 46.308V49.1074H388.335V46.308H368.712ZM373.767 37.5565C373.224 39.0785 372.218 41.1713 371.375 42.5574L374.066 43.3727C374.99 42.0953 376.186 40.22 377.246 38.3991L373.767 37.5565ZM368.223 41.3343L368.359 44.2424C372.952 44.1337 379.774 43.9706 386.16 43.726L386.324 41.0082C379.828 41.1441 372.789 41.3072 368.223 41.3343ZM380.997 39.8939C383.089 41.4702 385.644 43.7532 386.786 45.2752L389.34 43.5358C388.09 41.9594 385.427 39.7852 383.361 38.3175L380.997 39.8939ZM376.566 29.3215V33.0993H379.937V29.3215H376.566ZM366.375 31.0609V36.7412H369.554V34.0233H387.003V36.7412H390.346V31.0609H366.375Z" fill="black" fill-opacity="0.2"/>
</g>
<rect width="318.683" height="275.51" transform="matrix(-1 0 0 1 423.654 104.935)" fill="url(#paint14_linear_10_164)"/>
<rect width="334.617" height="13.7755" transform="matrix(-1 0 0 1 430.897 91.1596)" fill="url(#paint15_linear_10_164)"/>
<rect width="350.551" height="8.2653" transform="matrix(-1 0 0 1 438.139 82.8943)" fill="url(#paint16_linear_10_164)"/>
<rect width="319.563" height="20.5645" transform="matrix(-1 0 0 1 423.97 104.874)" fill="url(#paint17_linear_10_164)"/>
<rect width="318.683" height="275.51" transform="matrix(-1 0 0 1 425.102 387.333)" fill="url(#paint18_linear_10_164)"/>
<rect width="335.181" height="13.7097" transform="matrix(-1 0 0 1 432.38 373.355)" fill="url(#paint19_linear_10_164)"/>
<rect width="350.551" height="8.2653" transform="matrix(-1 0 0 1 439.588 365.292)" fill="url(#paint20_linear_10_164)"/>
<g filter="url(#filter1_d_10_164)">
<rect width="323.167" height="33.6382" transform="matrix(-1 0 0 1 426.373 629.515)" fill="#DEE6F1"/>
</g>
<rect width="318.362" height="22.8495" transform="matrix(-1 0 0 1 425.172 387.065)" fill="url(#paint21_linear_10_164)"/>
<rect width="115.137" height="13.7755" transform="matrix(-1 0 0 1 329.7 629.782)" fill="url(#paint22_linear_10_164)"/>
<g filter="url(#filter2_d_10_164)">
<rect width="115.137" height="13.7755" transform="matrix(-1 0 0 1 329.7 643.557)" fill="url(#paint23_linear_10_164)"/>
</g>
<rect width="141.305" height="13.7755" transform="matrix(-1 0 0 1 343.656 643.557)" fill="url(#paint24_linear_10_164)"/>
<g filter="url(#filter3_d_10_164)">
<rect width="141.305" height="13.7755" transform="matrix(-1 0 0 1 343.656 657.333)" fill="url(#paint25_linear_10_164)"/>
</g>
<rect width="162.239" height="13.7755" transform="matrix(-1 0 0 1 354.123 657.333)" fill="url(#paint26_linear_10_164)"/>
<g style="mix-blend-mode:multiply">
<path d="M319.452 520.3C319.452 497.681 301.115 479.345 278.496 479.345H264.298C241.679 479.345 223.343 497.681 223.343 520.3V629.515H319.452V520.3Z" fill="url(#paint27_linear_10_164)"/>
</g>
<g style="mix-blend-mode:multiply" opacity="0.2">
<rect width="48.0546" height="19.5853" transform="matrix(1 0 0 -1 317.049 212.267)" fill="url(#paint28_linear_10_164)"/>
</g>
<g style="mix-blend-mode:multiply" opacity="0.2">
<rect width="48.0546" height="19.5853" transform="matrix(1 0 0 -1 374.714 212.266)" fill="url(#paint29_linear_10_164)"/>
</g>
<g style="mix-blend-mode:multiply" opacity="0.2">
<path d="M332.066 185.065H380.121V166.568H332.066V185.065Z" fill="url(#paint30_linear_10_164)"/>
</g>
<g style="mix-blend-mode:multiply" opacity="0.2">
<rect width="38.2253" height="13.3866" transform="matrix(-1 0 0 1 423.971 323.167)" fill="url(#paint31_linear_10_164)"/>
</g>
<g style="mix-blend-mode:multiply" opacity="0.2">
<rect width="38.2253" height="13.3866" transform="matrix(-1 0 0 1 378.1 323.167)" fill="url(#paint32_linear_10_164)"/>
</g>
<g style="mix-blend-mode:multiply" opacity="0.2">
<path d="M412.025 341.76H373.8V354.403H412.025V341.76Z" fill="url(#paint33_linear_10_164)"/>
</g>
<g style="mix-blend-mode:multiply" opacity="0.2">
<rect x="106.81" y="563.006" width="48.0546" height="20.5645" fill="url(#paint34_linear_10_164)"/>
</g>
<g style="mix-blend-mode:multiply" opacity="0.2">
<rect x="164.476" y="563.006" width="48.0546" height="20.5645" fill="url(#paint35_linear_10_164)"/>
</g>
<g style="mix-blend-mode:multiply" opacity="0.2">
<path d="M121.827 591.568H169.882V610.99H121.827V591.568Z" fill="url(#paint36_linear_10_164)"/>
</g>
<g style="mix-blend-mode:multiply" opacity="0.2">
<rect width="38.2253" height="20.5645" transform="matrix(-1 0 0 1 423.971 558.436)" fill="url(#paint37_linear_10_164)"/>
</g>
<g style="mix-blend-mode:multiply" opacity="0.2">
<rect width="38.2253" height="20.5645" transform="matrix(-1 0 0 1 378.1 558.436)" fill="url(#paint38_linear_10_164)"/>
</g>
<g style="mix-blend-mode:multiply" opacity="0.2">
<path d="M412.025 586.998H373.8V606.42H412.025V586.998Z" fill="url(#paint39_linear_10_164)"/>
</g>
<g style="mix-blend-mode:multiply" opacity="0.2">
<rect x="208.926" y="166.567" width="75.1399" height="17.6267" transform="rotate(180 208.926 166.567)" fill="url(#paint40_linear_10_164)"/>
</g>
<g style="mix-blend-mode:multiply" opacity="0.2">
<rect x="118.758" y="166.567" width="13.1495" height="17.4798" transform="rotate(180 118.758 166.567)" fill="url(#paint41_linear_10_164)"/>
</g>
<g style="mix-blend-mode:multiply" opacity="0.2">
<path d="M185.445 142.086H110.305V125.438H185.445V142.086Z" fill="url(#paint42_linear_10_164)"/>
</g>
<g filter="url(#filter4_d_10_164)">
<rect width="117.333" height="16.5306" transform="matrix(-1 0 0 1 250.574 321.145)" fill="url(#paint43_linear_10_164)"/>
</g>
<path d="M240.433 182.504C240.433 174.964 234.321 168.852 226.782 168.852H195.528V233.48H240.433V182.504Z" fill="#DEE6F1"/>
<path d="M188.286 168.852H157.032C149.492 168.852 143.38 174.964 143.38 182.504V233.48H188.286V168.852Z" fill="#DEE6F1"/>
<rect width="44.9053" height="73.8599" transform="matrix(-1 0 0 1 240.433 239.019)" fill="#DEE6F1"/>
<rect width="44.9053" height="73.8599" transform="matrix(-1 0 0 1 188.286 239.019)" fill="#DEE6F1"/>
<g filter="url(#filter5_d_10_164)">
<rect width="117.333" height="16.5306" transform="matrix(-1 0 0 1 392.334 321.145)" fill="url(#paint44_linear_10_164)"/>
</g>
<path d="M382.194 182.504C382.194 174.964 376.082 168.852 368.542 168.852H337.289V233.48H382.194V182.504Z" fill="#DEE6F1"/>
<path d="M330.046 168.852H298.792C291.253 168.852 285.14 174.964 285.14 182.504V233.48H330.046V168.852Z" fill="#DEE6F1"/>
<rect width="44.9053" height="73.8599" transform="matrix(-1 0 0 1 382.194 239.019)" fill="#DEE6F1"/>
<rect width="44.9053" height="73.8599" transform="matrix(-1 0 0 1 330.046 239.019)" fill="#DEE6F1"/>
<path fill-rule="evenodd" clip-rule="evenodd" d="M151.553 493.545C155.252 489.271 161.125 488.054 166.057 490.539L168.68 491.861L171.303 490.539C176.236 488.054 182.109 489.271 185.808 493.545C190.799 499.313 190.055 508.414 184.201 513.176L168.874 525.646L168.68 525.502L168.487 525.646L153.159 513.176C147.306 508.414 146.561 499.313 151.553 493.545Z" fill="url(#paint45_linear_10_164)"/>
<path fill-rule="evenodd" clip-rule="evenodd" d="M339.582 493.239C343.281 488.964 349.154 487.747 354.086 490.233L356.709 491.554L359.333 490.233C364.265 487.747 370.138 488.964 373.837 493.239C378.829 499.006 378.084 508.107 372.23 512.869L356.903 525.339L356.709 525.195L356.515 525.339L341.188 512.869C335.335 508.107 334.59 499.006 339.582 493.239Z" fill="url(#paint46_linear_10_164)"/>
<path d="M125.832 19.7333C119.802 16.4182 112.624 18.0396 108.103 23.7383V23.7383C102.002 31.4292 102.915 43.5685 110.073 49.9217L128.798 66.5405L132.512 63.5399C145.656 52.9199 143.988 29.7138 129.508 21.7542L125.832 19.7333Z" fill="white"/>
<path d="M132.239 19.7333C138.269 16.4182 145.447 18.0396 149.968 23.7383V23.7383C156.069 31.4292 155.156 43.5685 147.997 49.9217L129.272 66.5405L125.559 63.5399C112.415 52.9199 114.083 29.7138 128.562 21.7542L132.239 19.7333Z" fill="white"/>
<path fill-rule="evenodd" clip-rule="evenodd" d="M108.103 23.7383C112.624 18.0397 119.802 16.4183 125.832 19.7334L129.036 21.4942L132.239 19.7334C138.269 16.4183 145.447 18.0397 149.968 23.7383C156.069 31.4293 155.156 43.5686 147.997 49.9217L129.273 66.5406L129.036 66.349L128.798 66.5406L110.074 49.9217C102.915 43.5686 102.002 31.4293 108.103 23.7383Z" fill="url(#paint47_linear_10_164)" fill-opacity="0.8"/>
<rect x="142.851" y="30.0343" width="4.80546" height="10.8123" rx="2.40273" fill="white"/>
<rect x="468.984" y="541.765" width="8.69624" height="115.729" fill="#3F2511"/>
<path d="M446.373 519.545C452.895 529.883 467.157 556.856 472.027 582.039" stroke="#422812" stroke-width="4.66667"/>
<path d="M508.117 500.103C499.052 515.266 479.23 554.825 472.462 591.76" stroke="#422812" stroke-width="4.66667"/>
<ellipse rx="28.0956" ry="28.5819" transform="matrix(-0.993023 0.117923 0.1042 0.994556 517.99 487.81)" fill="#C0D780"/>
<ellipse rx="28.0956" ry="28.5819" transform="matrix(-0.993023 0.117923 0.1042 0.994556 517.99 487.81)" fill="url(#paint48_linear_10_164)" fill-opacity="0.2"/>
<ellipse rx="31.4009" ry="32.0117" transform="matrix(-0.993023 0.117923 0.1042 0.994556 488.776 452.139)" fill="#C0D780"/>
<ellipse rx="31.4009" ry="32.0117" transform="matrix(-0.993023 0.117923 0.1042 0.994556 488.776 452.139)" fill="url(#paint49_linear_10_164)" fill-opacity="0.2"/>
<ellipse rx="31.4009" ry="32.0117" transform="matrix(-0.993023 0.117923 0.1042 0.994556 483.412 517.242)" fill="#C0D780"/>
<ellipse rx="31.4009" ry="32.0117" transform="matrix(-0.993023 0.117923 0.1042 0.994556 483.412 517.242)" fill="url(#paint50_linear_10_164)" fill-opacity="0.2"/>
<ellipse rx="31.4009" ry="32.0117" transform="matrix(-0.993023 0.117923 0.1042 0.994556 451.466 508.373)" fill="#C0D780"/>
<ellipse rx="31.4009" ry="32.0117" transform="matrix(-0.993023 0.117923 0.1042 0.994556 451.466 508.373)" fill="url(#paint51_linear_10_164)" fill-opacity="0.2"/>
<ellipse rx="39.6643" ry="38.2997" transform="matrix(-0.993023 0.117923 0.1042 0.994556 455.681 469.307)" fill="#C0D780"/>
<ellipse rx="39.6643" ry="38.2997" transform="matrix(-0.993023 0.117923 0.1042 0.994556 455.681 469.307)" fill="url(#paint52_linear_10_164)" fill-opacity="0.2"/>
<rect x="71.4309" y="548.143" width="9.93992" height="120.194" transform="rotate(-2.54691 71.4309 548.143)" fill="#3F2511"/>
<path d="M44.5872 526.237C52.5119 536.632 70.0421 563.893 76.7651 589.774" stroke="#422812" stroke-width="4.66667"/>
<path d="M114.193 502.928C104.542 519.121 83.7343 561.173 77.7102 599.839" stroke="#422812" stroke-width="4.66667"/>
<ellipse rx="32.0746" ry="29.7185" transform="matrix(-0.98848 0.151354 0.158578 0.987346 124.905 485.349)" fill="#C0D780"/>
<ellipse rx="32.0746" ry="29.7185" transform="matrix(-0.98848 0.151354 0.158578 0.987346 124.905 485.349)" fill="url(#paint53_linear_10_164)" fill-opacity="0.2"/>
<ellipse rx="35.8481" ry="33.2847" transform="matrix(-0.98848 0.151354 0.158578 0.987346 89.8994 449.822)" fill="#C0D780"/>
<ellipse rx="35.8481" ry="33.2847" transform="matrix(-0.98848 0.151354 0.158578 0.987346 89.8994 449.822)" fill="url(#paint54_linear_10_164)" fill-opacity="0.2"/>
<ellipse rx="35.8481" ry="33.2847" transform="matrix(-0.98848 0.151354 0.158578 0.987346 86.7789 517.643)" fill="#C0D780"/>
<ellipse rx="35.8481" ry="33.2847" transform="matrix(-0.98848 0.151354 0.158578 0.987346 86.7789 517.643)" fill="url(#paint55_linear_10_164)" fill-opacity="0.2"/>
<ellipse rx="35.8481" ry="33.2847" transform="matrix(-0.98848 0.151354 0.158578 0.987346 49.8918 510.063)" fill="#C0D780"/>
<ellipse rx="35.8481" ry="33.2847" transform="matrix(-0.98848 0.151354 0.158578 0.987346 49.8918 510.063)" fill="url(#paint56_linear_10_164)" fill-opacity="0.2"/>
<ellipse rx="45.2819" ry="39.8228" transform="matrix(-0.98848 0.151354 0.158578 0.987346 52.902 469.316)" fill="#C0D780"/>
<ellipse rx="45.2819" ry="39.8228" transform="matrix(-0.98848 0.151354 0.158578 0.987346 52.902 469.316)" fill="url(#paint57_linear_10_164)" fill-opacity="0.2"/>
<defs>
<filter id="filter0_i_10_164" x="178.308" y="29.0225" width="212.174" height="31.1736" filterUnits="userSpaceOnUse" color-interpolation-filters="sRGB">
<feFlood flood-opacity="0" result="BackgroundImageFix"/>
<feBlend mode="normal" in="SourceGraphic" in2="BackgroundImageFix" result="shape"/>
<feColorMatrix in="SourceAlpha" type="matrix" values="0 0 0 0 0 0 0 0 0 0 0 0 0 0 0 0 0 0 127 0" result="hardAlpha"/>
<feOffset dy="5.19099"/>
<feGaussianBlur stdDeviation="2.59549"/>
<feComposite in2="hardAlpha" operator="arithmetic" k2="-1" k3="1"/>
<feColorMatrix type="matrix" values="0 0 0 0 0 0 0 0 0 0 0 0 0 0 0 0 0 0 0.25 0"/>
<feBlend mode="normal" in2="shape" result="effect1_innerShadow_10_164"/>
</filter>
<filter id="filter1_d_10_164" x="95.0148" y="624.055" width="339.549" height="50.0204" filterUnits="userSpaceOnUse" color-interpolation-filters="sRGB">
<feFlood flood-opacity="0" result="BackgroundImageFix"/>
<feColorMatrix in="SourceAlpha" type="matrix" values="0 0 0 0 0 0 0 0 0 0 0 0 0 0 0 0 0 0 127 0" result="hardAlpha"/>
<feOffset dy="2.73037"/>
<feGaussianBlur stdDeviation="4.09556"/>
<feComposite in2="hardAlpha" operator="out"/>
<feColorMatrix type="matrix" values="0 0 0 0 0 0 0 0 0 0 0 0 0 0 0 0 0 0 0.25 0"/>
<feBlend mode="normal" in2="BackgroundImageFix" result="effect1_dropShadow_10_164"/>
<feBlend mode="normal" in="SourceGraphic" in2="effect1_dropShadow_10_164" result="shape"/>
</filter>
<filter id="filter2_d_10_164" x="209.102" y="635.366" width="126.059" height="24.697" filterUnits="userSpaceOnUse" color-interpolation-filters="sRGB">
<feFlood flood-opacity="0" result="BackgroundImageFix"/>
<feColorMatrix in="SourceAlpha" type="matrix" values="0 0 0 0 0 0 0 0 0 0 0 0 0 0 0 0 0 0 127 0" result="hardAlpha"/>
<feOffset dy="-2.73037"/>
<feGaussianBlur stdDeviation="2.73037"/>
<feComposite in2="hardAlpha" operator="out"/>
<feColorMatrix type="matrix" values="0 0 0 0 0 0 0 0 0 0 0 0 0 0 0 0 0 0 0.25 0"/>
<feBlend mode="normal" in2="BackgroundImageFix" result="effect1_dropShadow_10_164"/>
<feBlend mode="normal" in="SourceGraphic" in2="effect1_dropShadow_10_164" result="shape"/>
</filter>
<filter id="filter3_d_10_164" x="196.891" y="649.141" width="152.226" height="24.697" filterUnits="userSpaceOnUse" color-interpolation-filters="sRGB">
<feFlood flood-opacity="0" result="BackgroundImageFix"/>
<feColorMatrix in="SourceAlpha" type="matrix" values="0 0 0 0 0 0 0 0 0 0 0 0 0 0 0 0 0 0 127 0" result="hardAlpha"/>
<feOffset dy="-2.73037"/>
<feGaussianBlur stdDeviation="2.73037"/>
<feComposite in2="hardAlpha" operator="out"/>
<feColorMatrix type="matrix" values="0 0 0 0 0 0 0 0 0 0 0 0 0 0 0 0 0 0 0.25 0"/>
<feBlend mode="normal" in2="BackgroundImageFix" result="effect1_dropShadow_10_164"/>
<feBlend mode="normal" in="SourceGraphic" in2="effect1_dropShadow_10_164" result="shape"/>
</filter>
<filter id="filter4_d_10_164" x="127.78" y="312.954" width="128.255" height="27.4521" filterUnits="userSpaceOnUse" color-interpolation-filters="sRGB">
<feFlood flood-opacity="0" result="BackgroundImageFix"/>
<feColorMatrix in="SourceAlpha" type="matrix" values="0 0 0 0 0 0 0 0 0 0 0 0 0 0 0 0 0 0 127 0" result="hardAlpha"/>
<feOffset dy="-2.73037"/>
<feGaussianBlur stdDeviation="2.73037"/>
<feComposite in2="hardAlpha" operator="out"/>
<feColorMatrix type="matrix" values="0 0 0 0 0 0 0 0 0 0 0 0 0 0 0 0 0 0 0.1 0"/>
<feBlend mode="normal" in2="BackgroundImageFix" result="effect1_dropShadow_10_164"/>
<feBlend mode="normal" in="SourceGraphic" in2="effect1_dropShadow_10_164" result="shape"/>
</filter>
<filter id="filter5_d_10_164" x="269.54" y="312.954" width="128.255" height="27.4521" filterUnits="userSpaceOnUse" color-interpolation-filters="sRGB">
<feFlood flood-opacity="0" result="BackgroundImageFix"/>
<feColorMatrix in="SourceAlpha" type="matrix" values="0 0 0 0 0 0 0 0 0 0 0 0 0 0 0 0 0 0 127 0" result="hardAlpha"/>
<feOffset dy="-2.73037"/>
<feGaussianBlur stdDeviation="2.73037"/>
<feComposite in2="hardAlpha" operator="out"/>
<feColorMatrix type="matrix" values="0 0 0 0 0 0 0 0 0 0 0 0 0 0 0 0 0 0 0.1 0"/>
<feBlend mode="normal" in2="BackgroundImageFix" result="effect1_dropShadow_10_164"/>
<feBlend mode="normal" in="SourceGraphic" in2="effect1_dropShadow_10_164" result="shape"/>
</filter>
<linearGradient id="paint0_linear_10_164" x1="45.0512" y1="0" x2="45.0512" y2="19.5651" gradientUnits="userSpaceOnUse">
<stop offset="0.0572917" stop-color="#F9EDB7"/>
<stop offset="1" stop-color="#76BBB6"/>
</linearGradient>
<linearGradient id="paint1_linear_10_164" x1="45.0512" y1="0" x2="45.0512" y2="19.5651" gradientUnits="userSpaceOnUse">
<stop offset="0.0572917" stop-color="#F9EDB7"/>
<stop offset="1" stop-color="#76BBB6"/>
</linearGradient>
<linearGradient id="paint2_linear_10_164" x1="290.544" y1="430.546" x2="290.544" y2="412.068" gradientUnits="userSpaceOnUse">
<stop offset="0.0572917" stop-color="#F9EDB7"/>
<stop offset="1" stop-color="#76BBB6"/>
</linearGradient>
<linearGradient id="paint3_linear_10_164" x1="433.635" y1="76.5776" x2="404.441" y2="-22.3657" gradientUnits="userSpaceOnUse">
<stop stop-color="#F9EDB7"/>
<stop offset="1" stop-color="#76BBB6"/>
</linearGradient>
<linearGradient id="paint4_linear_10_164" x1="-2.54538" y1="-0.471082" x2="0.217224" y2="10.7151" gradientUnits="userSpaceOnUse">
<stop stop-color="#F9EDB7"/>
<stop offset="1" stop-color="#76BBB6"/>
</linearGradient>
<linearGradient id="paint5_linear_10_164" x1="-2.54538" y1="-0.471082" x2="0.217224" y2="10.7151" gradientUnits="userSpaceOnUse">
<stop stop-color="#F9EDB7"/>
<stop offset="1" stop-color="#76BBB6"/>
</linearGradient>
<linearGradient id="paint6_linear_10_164" x1="-2.54538" y1="-0.471082" x2="0.217224" y2="10.7151" gradientUnits="userSpaceOnUse">
<stop stop-color="#F9EDB7"/>
<stop offset="1" stop-color="#76BBB6"/>
</linearGradient>
<linearGradient id="paint7_linear_10_164" x1="284.612" y1="27.0311" x2="284.612" y2="58.2666" gradientUnits="userSpaceOnUse">
<stop offset="0.0572917" stop-color="#F9EDB7"/>
<stop offset="1" stop-color="#76BBB6" stop-opacity="0.81"/>
</linearGradient>
<linearGradient id="paint8_linear_10_164" x1="284.612" y1="27.0311" x2="284.612" y2="58.2666" gradientUnits="userSpaceOnUse">
<stop offset="0.0572917" stop-color="#F9EDB7"/>
<stop offset="1" stop-color="#76BBB6" stop-opacity="0.81"/>
</linearGradient>
<linearGradient id="paint9_linear_10_164" x1="284.612" y1="27.0311" x2="284.612" y2="58.2666" gradientUnits="userSpaceOnUse">
<stop offset="0.0572917" stop-color="#F9EDB7"/>
<stop offset="1" stop-color="#76BBB6" stop-opacity="0.81"/>
</linearGradient>
<linearGradient id="paint10_linear_10_164" x1="284.612" y1="27.0311" x2="284.612" y2="58.2666" gradientUnits="userSpaceOnUse">
<stop offset="0.0572917" stop-color="#F9EDB7"/>
<stop offset="1" stop-color="#76BBB6" stop-opacity="0.81"/>
</linearGradient>
<linearGradient id="paint11_linear_10_164" x1="284.612" y1="27.0311" x2="284.612" y2="58.2666" gradientUnits="userSpaceOnUse">
<stop offset="0.0572917" stop-color="#F9EDB7"/>
<stop offset="1" stop-color="#76BBB6" stop-opacity="0.81"/>
</linearGradient>
<linearGradient id="paint12_linear_10_164" x1="284.612" y1="27.0311" x2="284.612" y2="58.2666" gradientUnits="userSpaceOnUse">
<stop offset="0.0572917" stop-color="#F9EDB7"/>
<stop offset="1" stop-color="#76BBB6" stop-opacity="0.81"/>
</linearGradient>
<linearGradient id="paint13_linear_10_164" x1="284.612" y1="27.0311" x2="284.612" y2="58.2666" gradientUnits="userSpaceOnUse">
<stop offset="0.0572917" stop-color="#F9EDB7"/>
<stop offset="1" stop-color="#76BBB6" stop-opacity="0.81"/>
</linearGradient>
<linearGradient id="paint14_linear_10_164" x1="-32.1527" y1="-15.4334" x2="144.448" y2="260.28" gradientUnits="userSpaceOnUse">
<stop stop-color="#F9EDB7"/>
<stop offset="1" stop-color="#76BBB6"/>
</linearGradient>
<linearGradient id="paint15_linear_10_164" x1="-33.7603" y1="-0.771668" x2="-33.1678" y2="18.6518" gradientUnits="userSpaceOnUse">
<stop stop-color="#F9EDB7"/>
<stop offset="1" stop-color="#76BBB6"/>
</linearGradient>
<linearGradient id="paint16_linear_10_164" x1="175.276" y1="0" x2="175.276" y2="8.2653" gradientUnits="userSpaceOnUse">
<stop offset="0.0572917" stop-color="#F9EDB7"/>
<stop offset="1" stop-color="#76BBB6"/>
</linearGradient>
<linearGradient id="paint17_linear_10_164" x1="159.782" y1="0" x2="159.782" y2="20.5645" gradientUnits="userSpaceOnUse">
<stop stop-color="#7BA08E"/>
<stop offset="1" stop-color="#7BA08E" stop-opacity="0.11"/>
</linearGradient>
<linearGradient id="paint18_linear_10_164" x1="-32.1527" y1="-15.4334" x2="144.448" y2="260.28" gradientUnits="userSpaceOnUse">
<stop stop-color="#F9EDB7"/>
<stop offset="1" stop-color="#76BBB6"/>
</linearGradient>
<linearGradient id="paint19_linear_10_164" x1="-33.8171" y1="-0.767981" x2="-33.2313" y2="18.5629" gradientUnits="userSpaceOnUse">
<stop stop-color="#F9EDB7"/>
<stop offset="1" stop-color="#76BBB6"/>
</linearGradient>
<linearGradient id="paint20_linear_10_164" x1="175.276" y1="0" x2="175.276" y2="8.2653" gradientUnits="userSpaceOnUse">
<stop offset="0.0572917" stop-color="#F9EDB7"/>
<stop offset="1" stop-color="#76BBB6"/>
</linearGradient>
<linearGradient id="paint21_linear_10_164" x1="159.181" y1="0" x2="159.181" y2="22.8495" gradientUnits="userSpaceOnUse">
<stop stop-color="#7BA08E"/>
<stop offset="1" stop-color="#7BA08E" stop-opacity="0.11"/>
</linearGradient>
<linearGradient id="paint22_linear_10_164" x1="-11.6164" y1="-0.771668" x2="-9.90651" y2="18.5183" gradientUnits="userSpaceOnUse">
<stop stop-color="#F9EDB7"/>
<stop offset="1" stop-color="#76BBB6"/>
</linearGradient>
<linearGradient id="paint23_linear_10_164" x1="-11.6164" y1="-0.771668" x2="-9.90651" y2="18.5183" gradientUnits="userSpaceOnUse">
<stop stop-color="#F9EDB7"/>
<stop offset="1" stop-color="#76BBB6"/>
</linearGradient>
<linearGradient id="paint24_linear_10_164" x1="-14.2565" y1="-0.771668" x2="-12.8596" y2="18.5689" gradientUnits="userSpaceOnUse">
<stop stop-color="#F9EDB7"/>
<stop offset="1" stop-color="#76BBB6"/>
</linearGradient>
<linearGradient id="paint25_linear_10_164" x1="-14.2565" y1="-0.771668" x2="-12.8596" y2="18.5689" gradientUnits="userSpaceOnUse">
<stop stop-color="#F9EDB7"/>
<stop offset="1" stop-color="#76BBB6"/>
</linearGradient>
<linearGradient id="paint26_linear_10_164" x1="-16.3686" y1="-0.771668" x2="-15.1504" y2="18.5932" gradientUnits="userSpaceOnUse">
<stop stop-color="#F9EDB7"/>
<stop offset="1" stop-color="#76BBB6"/>
</linearGradient>
<linearGradient id="paint27_linear_10_164" x1="271.397" y1="479.345" x2="271.397" y2="629.515" gradientUnits="userSpaceOnUse">
<stop offset="0.0572917" stop-color="#F9EDB7"/>
<stop offset="1" stop-color="#76BBB6"/>
</linearGradient>
<linearGradient id="paint28_linear_10_164" x1="24.0273" y1="0" x2="24.0273" y2="19.5853" gradientUnits="userSpaceOnUse">
<stop offset="0.0572917" stop-color="#F9EDB7"/>
<stop offset="1" stop-color="#76BBB6"/>
</linearGradient>
<linearGradient id="paint29_linear_10_164" x1="24.0273" y1="0" x2="24.0273" y2="19.5853" gradientUnits="userSpaceOnUse">
<stop offset="0.0572917" stop-color="#F9EDB7"/>
<stop offset="1" stop-color="#76BBB6"/>
</linearGradient>
<linearGradient id="paint30_linear_10_164" x1="356.093" y1="185.065" x2="356.093" y2="166.568" gradientUnits="userSpaceOnUse">
<stop offset="0.0572917" stop-color="#F9EDB7"/>
<stop offset="1" stop-color="#76BBB6"/>
</linearGradient>
<linearGradient id="paint31_linear_10_164" x1="19.1126" y1="0" x2="19.1126" y2="13.3866" gradientUnits="userSpaceOnUse">
<stop offset="0.0572917" stop-color="#F9EDB7"/>
<stop offset="1" stop-color="#76BBB6"/>
</linearGradient>
<linearGradient id="paint32_linear_10_164" x1="19.1126" y1="0" x2="19.1126" y2="13.3866" gradientUnits="userSpaceOnUse">
<stop offset="0.0572917" stop-color="#F9EDB7"/>
<stop offset="1" stop-color="#76BBB6"/>
</linearGradient>
<linearGradient id="paint33_linear_10_164" x1="392.913" y1="341.76" x2="392.913" y2="354.403" gradientUnits="userSpaceOnUse">
<stop offset="0.0572917" stop-color="#F9EDB7"/>
<stop offset="1" stop-color="#76BBB6"/>
</linearGradient>
<linearGradient id="paint34_linear_10_164" x1="130.837" y1="563.006" x2="130.837" y2="583.57" gradientUnits="userSpaceOnUse">
<stop offset="0.0572917" stop-color="#F9EDB7"/>
<stop offset="1" stop-color="#76BBB6"/>
</linearGradient>
<linearGradient id="paint35_linear_10_164" x1="188.503" y1="563.006" x2="188.503" y2="583.57" gradientUnits="userSpaceOnUse">
<stop offset="0.0572917" stop-color="#F9EDB7"/>
<stop offset="1" stop-color="#76BBB6"/>
</linearGradient>
<linearGradient id="paint36_linear_10_164" x1="145.854" y1="591.568" x2="145.854" y2="610.99" gradientUnits="userSpaceOnUse">
<stop offset="0.0572917" stop-color="#F9EDB7"/>
<stop offset="1" stop-color="#76BBB6"/>
</linearGradient>
<linearGradient id="paint37_linear_10_164" x1="19.1126" y1="0" x2="19.1126" y2="20.5645" gradientUnits="userSpaceOnUse">
<stop offset="0.0572917" stop-color="#F9EDB7"/>
<stop offset="1" stop-color="#76BBB6"/>
</linearGradient>
<linearGradient id="paint38_linear_10_164" x1="19.1126" y1="0" x2="19.1126" y2="20.5645" gradientUnits="userSpaceOnUse">
<stop offset="0.0572917" stop-color="#F9EDB7"/>
<stop offset="1" stop-color="#76BBB6"/>
</linearGradient>
<linearGradient id="paint39_linear_10_164" x1="392.913" y1="586.998" x2="392.913" y2="606.42" gradientUnits="userSpaceOnUse">
<stop offset="0.0572917" stop-color="#F9EDB7"/>
<stop offset="1" stop-color="#76BBB6"/>
</linearGradient>
<linearGradient id="paint40_linear_10_164" x1="246.496" y1="166.567" x2="246.496" y2="184.194" gradientUnits="userSpaceOnUse">
<stop offset="0.0572917" stop-color="#F9EDB7"/>
<stop offset="1" stop-color="#76BBB6"/>
</linearGradient>
<linearGradient id="paint41_linear_10_164" x1="125.333" y1="166.567" x2="125.333" y2="184.047" gradientUnits="userSpaceOnUse">
<stop offset="0.0572917" stop-color="#F9EDB7"/>
<stop offset="1" stop-color="#76BBB6"/>
</linearGradient>
<linearGradient id="paint42_linear_10_164" x1="147.875" y1="142.086" x2="147.875" y2="125.438" gradientUnits="userSpaceOnUse">
<stop offset="0.0572917" stop-color="#F9EDB7"/>
<stop offset="1" stop-color="#76BBB6"/>
</linearGradient>
<linearGradient id="paint43_linear_10_164" x1="58.6666" y1="0" x2="58.6666" y2="16.5306" gradientUnits="userSpaceOnUse">
<stop offset="0.0572917" stop-color="#F9EDB7"/>
<stop offset="1" stop-color="#76BBB6"/>
</linearGradient>
<linearGradient id="paint44_linear_10_164" x1="58.6666" y1="0" x2="58.6666" y2="16.5306" gradientUnits="userSpaceOnUse">
<stop offset="0.0572917" stop-color="#F9EDB7"/>
<stop offset="1" stop-color="#76BBB6"/>
</linearGradient>
<linearGradient id="paint45_linear_10_164" x1="168.68" y1="489.263" x2="168.68" y2="525.646" gradientUnits="userSpaceOnUse">
<stop offset="0.0572917" stop-color="#F9EDB7"/>
<stop offset="1" stop-color="#76BBB6"/>
</linearGradient>
<linearGradient id="paint46_linear_10_164" x1="356.709" y1="488.956" x2="356.709" y2="525.339" gradientUnits="userSpaceOnUse">
<stop offset="0.0572917" stop-color="#F9EDB7"/>
<stop offset="1" stop-color="#76BBB6"/>
</linearGradient>
<linearGradient id="paint47_linear_10_164" x1="139.781" y1="-0.526424" x2="135.114" y2="53.0252" gradientUnits="userSpaceOnUse">
<stop offset="0.0592525" stop-color="#FDEC9A"/>
<stop offset="0.315538" stop-color="#FCA562"/>
<stop offset="0.705387" stop-color="#FF4E5E"/>
<stop offset="1" stop-color="#FB429F"/>
</linearGradient>
<linearGradient id="paint48_linear_10_164" x1="-57.4979" y1="74.6035" x2="28.6312" y2="60.4152" gradientUnits="userSpaceOnUse">
<stop offset="0.118855"/>
<stop offset="1" stop-opacity="0"/>
</linearGradient>
<linearGradient id="paint49_linear_10_164" x1="-64.2624" y1="83.5559" x2="32.0102" y2="67.73" gradientUnits="userSpaceOnUse">
<stop offset="0.118855"/>
<stop offset="1" stop-opacity="0"/>
</linearGradient>
<linearGradient id="paint50_linear_10_164" x1="-64.2624" y1="83.5559" x2="32.0102" y2="67.73" gradientUnits="userSpaceOnUse">
<stop offset="0.118855"/>
<stop offset="1" stop-opacity="0"/>
</linearGradient>
<linearGradient id="paint51_linear_10_164" x1="-64.2624" y1="83.5559" x2="32.0102" y2="67.73" gradientUnits="userSpaceOnUse">
<stop offset="0.118855"/>
<stop offset="1" stop-opacity="0"/>
</linearGradient>
<linearGradient id="paint52_linear_10_164" x1="-81.1735" y1="99.9687" x2="40.0682" y2="78.9266" gradientUnits="userSpaceOnUse">
<stop offset="0.118855"/>
<stop offset="1" stop-opacity="0"/>
</linearGradient>
<linearGradient id="paint53_linear_10_164" x1="-65.6411" y1="77.5704" x2="32.1551" y2="59.8819" gradientUnits="userSpaceOnUse">
<stop offset="0.118855"/>
<stop offset="1" stop-opacity="0"/>
</linearGradient>
<linearGradient id="paint54_linear_10_164" x1="-73.3636" y1="86.8788" x2="35.9526" y2="67.1483" gradientUnits="userSpaceOnUse">
<stop offset="0.118855"/>
<stop offset="1" stop-opacity="0"/>
</linearGradient>
<linearGradient id="paint55_linear_10_164" x1="-73.3636" y1="86.8788" x2="35.9526" y2="67.1483" gradientUnits="userSpaceOnUse">
<stop offset="0.118855"/>
<stop offset="1" stop-opacity="0"/>
</linearGradient>
<linearGradient id="paint56_linear_10_164" x1="-73.3636" y1="86.8788" x2="35.9526" y2="67.1483" gradientUnits="userSpaceOnUse">
<stop offset="0.118855"/>
<stop offset="1" stop-opacity="0"/>
</linearGradient>
<linearGradient id="paint57_linear_10_164" x1="-92.6698" y1="103.944" x2="44.9161" y2="77.7264" gradientUnits="userSpaceOnUse">
<stop offset="0.118855"/>
<stop offset="1" stop-opacity="0"/>
</linearGradient>
</defs>
</svg>
