<?xml version="1.0" encoding="utf-8"?>
<!-- Generator: Adobe Illustrator 25.0.0, SVG Export Plug-In . SVG Version: 6.00 Build 0)  -->
<svg version="1.1" id="Layer_1" xmlns="http://www.w3.org/2000/svg" xmlns:xlink="http://www.w3.org/1999/xlink" x="0px" y="0px"
	 viewBox="0 0 590 457" style="enable-background:new 0 0 590 457;" xml:space="preserve">
<style type="text/css">
	.st0{fill:url(#SVGID_1_);}
	.st1{fill:url(#SVGID_2_);}
	.st2{fill:url(#SVGID_3_);}
	.st3{fill:none;}
	.st4{fill:url(#SVGID_4_);}
	.st5{fill:url(#SVGID_5_);}
	.st6{fill:url(#SVGID_6_);}
	.st7{fill:url(#SVGID_7_);}
	.st8{fill:url(#SVGID_8_);}
	.st9{fill:url(#SVGID_9_);}
	.st10{fill:url(#SVGID_10_);}
	.st11{fill:url(#SVGID_11_);}
	.st12{fill:url(#SVGID_12_);}
	.st13{fill:url(#SVGID_13_);}
	.st14{fill:url(#SVGID_14_);}
	.st15{fill:#41C85F;stroke:#FFFFFF;stroke-width:2.5396;stroke-miterlimit:10;}
	.st16{opacity:0.9;fill:#FFFFFF;}
	.st17{opacity:0.8;fill-rule:evenodd;clip-rule:evenodd;fill:url(#SVGID_15_);}
</style>
<linearGradient id="SVGID_1_" gradientUnits="userSpaceOnUse" x1="-3.66" y1="247.5529" x2="95.8281" y2="120.4429" gradientTransform="matrix(1 0 0 -1 0 457.8898)">
	<stop  offset="0" style="stop-color:#F7E79B"/>
	<stop  offset="1" style="stop-color:#57A49E"/>
</linearGradient>
<path class="st0" d="M3.1,247.7c1.9,0,3.1-1.3,3.1-4v-11.1c0-3.8,1.8-6,4.8-6h15c3.1,0,4.8,2.2,4.8,6v11.1c0,2.7,0.8,4,2.3,4
	c1.5,0,2.2-1.3,2.2-4v-10.9c0-3.8,1.8-6,4.8-6h14.8c3.1,0,4.8,2.2,4.8,6v10.9c0,2.7,0.3,4,1.1,4c3.1,0,4.8,2,4.8,6l0.2,7.1
	c0,3.8-1.1,6-3.1,6c-1.9,0-3.1,1.4-3.1,4v51.1c0.1,2.7-0.8,5.3-2.4,7.5L48,341.9c-0.6,0.8-1,1.8-1,2.8c0,1,0.3,2,1,2.8l12.2,16.7
	c2.9,4,1.6,7.5-2.6,7.5H43.3c-1.2,0-2.3-0.3-3.4-0.8c-1-0.6-1.9-1.4-2.6-2.4l-2.4-3c-1.4-2-3.1-2-4.5,0l-2.1,3
	c-0.7,1-1.5,1.8-2.6,2.4c-1,0.6-2.2,0.8-3.4,0.8H8.1c-4.2,0-5.5-3.4-2.6-7.5l12.2-16.5c0.6-0.8,1-1.8,1-2.8c0-1-0.3-2-1-2.8
	l-9.4-12.7c-1.6-2.1-2.4-4.8-2.2-7.5v-51.1c0-2.6-0.3-4-1.1-4c-3.1,0-4.8-2-4.8-6L0,253.6C0,249.9,1.1,247.7,3.1,247.7z M34.1,325.5
	c0.9-1.2,1.3-2.7,1.1-4.2v-50.4c0-2.6-0.8-4-2.2-4c-1.4,0-2.3,1.4-2.3,4v50.4c-0.1,1.5,0.3,3,1.1,4.2c0.1,0.2,0.3,0.4,0.5,0.5
	c0.2,0.1,0.4,0.2,0.6,0.2c0.2,0,0.5-0.1,0.7-0.2C33.8,325.9,34,325.7,34.1,325.5z M72.1,291.7h12.1c2.1,0,3.2-1.4,3.2-4v-3.4
	c-0.1-2.6,0.6-5.2,1.8-7.5l11.8-22.4c1.4-2.7,0.5-4.8-2.1-4.8H75.1c-3.1,0-4.8-2.2-4.8-6v-7.1c0-3.8,1.8-6,4.8-6h51.5
	c3.1,0,4.8,2.2,4.8,6v16.7c0,2.6-0.6,5.2-1.8,7.5l-10.6,20.2c-0.8,1.5-1.3,3.3-1.3,5v1.8c0,2.6,1.1,4,3.2,4h11.7
	c3.1,0,4.8,2.2,4.8,6v7.1c0,3.8-1.8,6-4.8,6H121c-2.1,0-3.2,1.3-3.2,4v43.6c-0.2,7.9-4.8,13.3-11.1,13.3H82.7c-4,0-5.5-3.4-2.9-7.5
	l6.1-9.1c1-1.5,1.5-3.2,1.4-5v-35.3c0-2.7-1.1-4-3.2-4H72.1c-3.1,0-4.8-2.2-4.8-6v-7.1C67.3,293.8,69.1,291.7,72.1,291.7z"/>
<linearGradient id="SVGID_2_" gradientUnits="userSpaceOnUse" x1="144.4524" y1="245.5634" x2="241.5004" y2="121.5683" gradientTransform="matrix(1 0 0 -1 0 457.8898)">
	<stop  offset="0" style="stop-color:#F7E79B"/>
	<stop  offset="1" style="stop-color:#57A49E"/>
</linearGradient>
<path class="st1" d="M284.1,289v19.6c0,3.8-1.8,6-4.8,6h-21.9c-2.6,0-4.4-1.4-5.6-4.2l-3.1-7.3c-1-2.2-2.7-3-4.5-1.6l-6.3,4.8
	c-3.4,2.6-5.8,0.8-5.8-4v-5.8c0-3.2,1-5.6,3.2-7.3l3.2-2.4c1.6-1.2,2.1-3,1.1-5.4l-10.4-25.2c-0.2-0.8-0.7-1.6-1.4-2.1
	c-0.7-0.5-1.5-0.8-2.3-0.7h-43.7c-1.9,0-3.2,1.3-3.4,3.8l-4,51.8c-0.3,3.6-2.3,5.6-5.2,5.6h-14.6c-3.2,0-5-2-4.7-6.2l4.4-53.6
	c0.2-1.7,0-3.4-0.6-5l-1.6-4.6c-1.4-4.2,0.2-7.1,3.7-7.1h61.6c2.4,0,3.7-1.8,2.7-3.8l-0.6-1.3c-0.6-1.6-2.1-2.8-1.1-4.2
	c0.6-1.2,2.7-2,5.5-2h13.5c2.6,0,4.4,1.4,5.6,4.2l1.8,4.4c0.3,0.9,0.8,1.6,1.5,2.1c0.7,0.5,1.6,0.8,2.4,0.7h1c2.4,0,3.7-1,3.2-2.4
	c-1.5-4.2,0.2-7.1,3.7-7.1h11.3c2.7,0,4.5,1.6,5.6,4.6l0.6,1.8c0.7,2.2,1.3,3,2.1,3c3.1,0,4.8,2.2,4.8,6v3.2c0,3.8-1.8,6-4.8,6
	h-19.5c-2.4,0-3.4,2-2.2,4.8l3.7,9.1c1,2.2,2.7,2.8,4.5,1.4l9.5-7.1c3.4-2.6,5.8-0.8,5.8,4v5.8c0,3.2-1,5.6-3.2,7.3l-6.3,4.8
	c-0.8,0.5-1.3,1.4-1.5,2.3c-0.2,0.9-0.2,1.9,0.2,2.8v0.2c0.3,0.8,0.8,1.5,1.5,2.1c0.7,0.5,1.5,0.8,2.4,0.8h0.3
	c0.8,0,1.5-0.1,2.2-0.5c0.7-0.4,1.3-0.9,1.7-1.6l3.7-4.6C281.5,281.8,284.1,283.6,284.1,289z M179.3,328.7l-4.5,34.1
	c-0.5,3.8-2.4,5.4-5.3,5.4h-14.6c-3.2,0-5-2.2-4.5-6.5l4.5-34.1c0.5-3.8,2.4-5.4,5.3-5.4h14.6C178,322.3,179.8,324.5,179.3,328.7
	L179.3,328.7z M184.9,257.1h39.3c3.1,0,4.8,2.2,4.8,6v3.2c0,3.8-1.8,6-4.8,6h-39.3c-3.1,0-4.8-2.2-4.8-6v-3.2
	C180.1,259.4,181.9,257.2,184.9,257.1L184.9,257.1z M254.5,343.6v18.6c0,3.8-1.8,6-4.8,6H188c-3.1,0-4.8-2.2-4.8-6v-37.7
	c0-3.8,1.8-6,4.8-6h17.9c3.1,0,4.8,2.2,4.8,6v16.7c0,2.6,1.1,4,3.2,4h28.6c0.8,0.1,1.5-0.1,2.2-0.5c0.7-0.4,1.3-0.9,1.7-1.6l3.2-4
	C252.1,336.2,254.5,338.2,254.5,343.6L254.5,343.6z M220.8,335.7l-1.6-14.7c-0.5-4.2,1.1-6.5,4.3-6.5h14.6c2.9,0,4.7,1.8,5.2,5.6
	L245,335c0.5,4.2-1.1,6.5-4.4,6.5H226C223.1,341.4,221.3,339.6,220.8,335.7L220.8,335.7z M258.8,362.8l-4.5-34.1
	c-0.5-4.2,1.3-6.5,4.5-6.5h14.7c2.9,0,4.8,1.6,5.3,5.4l4.5,34.1c0.5,4.2-1.3,6.5-4.5,6.5h-14.6C261.2,368.3,259.3,366.6,258.8,362.8
	L258.8,362.8z"/>
<linearGradient id="SVGID_3_" gradientUnits="userSpaceOnUse" x1="451.3708" y1="247.2197" x2="550.9169" y2="121.8547" gradientTransform="matrix(1 0 0 -1 0 457.8898)">
	<stop  offset="0" style="stop-color:#F7E79B"/>
	<stop  offset="1" style="stop-color:#57A49E"/>
</linearGradient>
<path class="st2" d="M459.2,252.5h1c2.1,0,3.2-1.4,3.2-4v-6.9c0-1.7-0.4-3.3-1.1-4.8l-1.3-2.7c-2.1-4-0.6-7.3,3.2-7.3h21.6
	c3.1,0,4.8,2.2,4.8,6v15.5c0,2.6,0.2,4,0.3,4h0.3c3.1,0,4.8,2.2,4.8,6v5.8c0,3.8-1,6-2.7,6s-2.7,1.3-2.7,4V289c0,2.2,1,2.2,2.4,3.6
	c1,0.8,1.6,2.6,1.6,5.2v8.5c0,3.4-0.6,5.4-1.9,6c-1.3,0.6-2.1,2-2.1,4.2v41.5c0.2,7.9-4.8,13.3-10.8,13.3h-18.2
	c-3.9,0-5.3-3.2-3.4-7.3l4-8.7c0.8-1.5,1.1-3.2,1.1-4.8v-21.4c0-2.8-1.1-4.4-3.1-3.6c-3.2,1.4-5.5-0.8-5.5-5V312
	c0-3.4,1.3-5.6,4-6.9l1.9-0.8c0.8-0.3,1.5-1,2-1.8c0.5-0.8,0.7-1.7,0.6-2.7v-25.4c0-2.7-1.1-4-3.2-4h-0.3c-3.1,0-4.8-2.2-4.8-6v-5.8
	C455,254.7,456.6,252.5,459.2,252.5z M582.3,284h-12.7c-1.3,0-2.5-0.3-3.5-1.1c-1-0.7-1.8-1.8-2.3-3l-7.7-15.5
	c-2.1-4-0.8-7.3,2.4-7.3h2.6c2.1,0,3.2-1.4,3.2-3.8c0-2.4-1.1-3.8-3.2-3.8h-31.7c-2.1,0-3.2,1.4-3.2,3.8c0,2.4,1.1,3.8,3.2,3.8h1.6
	c3.9,0,5.2,3.2,3.2,7.3l-7.6,15.5c-0.4,1.2-1.2,2.3-2.3,3c-1,0.7-2.3,1.1-3.5,1.1H508c-3.9,0-5.2-3-3.2-7.3l5.3-10.9
	c1.3-2.8,0.3-4.8-2.3-4.8H506c-3.1,0-4.8-2.2-4.8-6v-9.9c0-1.7-0.4-3.3-1.1-4.8l-1.3-2.6c-2.1-4-0.6-7.3,3.2-7.3h82.4
	c3.1,0,4.8,2.2,4.8,6v18.6c0,3.8-1.8,6-4.8,6h-2.1c-2.6,0-3.4,2-2.1,4.8l5.3,10.9C587.5,280.7,586.2,284,582.3,284z M515.9,371.7
	h-11.1c-3.2,0-4.8-2.2-4.3-6.5l4.8-43c0.5-3.8,2.3-5.6,5.2-5.6h11.1c3.2,0,4.8,2.2,4.4,6.5l-4.8,42.9
	C520.5,369.9,518.8,371.7,515.9,371.7z M554.8,371.7h-19.7c-3.1,0-4.8-2.2-4.8-6v-50.8c0-2.7-1.1-4-3.2-4H506c-3.1,0-4.8-2.2-4.8-6
	v-7.1c0-3.8,1.8-6,4.8-6h21.2c2.1,0,3.2-1.4,3.2-4v-5.2c0-3.8,1.8-6,4.8-6h19.6c3.1,0,4.8,2.2,4.8,6v5.3c0,2.6,1.1,4,3.2,4h21.2
	c3.1,0,4.8,2.2,4.8,6v7.1c0,3.8-1.8,6-4.8,6h-21.4c-2.1,0-3.2,1.3-3.2,4v50.7C559.7,369.5,557.9,371.7,554.8,371.7L554.8,371.7z
	 M585.4,371.7h-11.3c-2.9,0-4.8-2-5.2-5.6l-4.3-42.9c-0.5-4.2,1.3-6.5,4.5-6.5h11.1c2.9,0,4.8,2,5.2,5.6l4.5,43
	C590.4,369.5,588.6,371.7,585.4,371.7L585.4,371.7z"/>
<path class="st3" d="M306.6,256.7c0.6,0,1.1,0.2,1.5,0.6c0.5,0.5,0.9,1.2,1.1,1.9c0.2,0.7,0.3,1.4,0.2,2.2v103c0,2,0.5,5.4,4.2,5.4
	h18.7c3.6,0,4.2-3.4,4.2-5.4V233.1c0.1-0.8,0-1.6-0.3-2.3c-0.3-0.7-0.7-1.4-1.2-2c-0.4-0.3-0.9-0.5-1.5-0.6c-0.5-0.1-1.1,0-1.6,0.1
	l-26.7,7c-2.6,0.8-3.9,2.8-3.9,6v10.9c-0.1,0.8,0,1.5,0.2,2.2c0.2,0.7,0.6,1.4,1.1,1.9c0.5,0.3,1,0.5,1.5,0.6c0.5,0.1,1.1,0,1.6-0.2
	C306.2,256.8,306.4,256.7,306.6,256.7z M355.9,338.4h-7.4c-3.4,0-5.5-2.5-5.5-6.7v-63.5c0-4.2,2.1-6.7,5.5-6.7h21.1
	c0.6,0,2.6,0,2.6-3.4v-17.5c0-1.6-0.4-3.2-1.1-4.6l-1.3-2.6c-1.2-2.3-1.3-4.5-0.4-6.1c0.5-0.7,1.1-1.3,1.8-1.7
	c0.7-0.4,1.6-0.5,2.4-0.5h24c3.4,0,5.5,1.5,5.5,3.9c-0.1,0.4,0,0.7,0.1,1.1c0.1,0.3,0.2,0.7,0.5,1c0.3,0.3,0.6,0.5,1,0.6
	c0.4,0.1,0.7,0.2,1.1,0.1h21.2c3.4,0,5.5,2.5,5.5,6.7v7.1c0,4.2-2.1,6.7-5.5,6.7h-21.3c-0.6,0-2.6,0-2.6,3.4v2.4
	c0,3.4,1.9,3.4,2.6,3.4h21.1c3.4,0,5.5,2.5,5.5,6.7v63.3c0,4.2-2,6.7-5.5,6.7h-5L355.9,338.4z M348.5,262.8c-3.6,0-4.2,3.4-4.2,5.4
	v63.5c0,2,0.5,5.4,4.2,5.4h7.4l70.8-0.2c3.6,0,4.2-3.4,4.2-5.4v-63.3c0-2-0.5-5.4-4.2-5.4h-21.1c-2.5,0-3.9-1.7-3.9-4.7v-2.4
	c0-3,1.4-4.7,3.9-4.7h21.2c3.6,0,4.2-3.4,4.2-5.4v-7.1c0-2-0.5-5.4-4.2-5.4h-21.2c-0.6,0-1.1,0-1.6-0.3c-0.5-0.2-1-0.5-1.4-0.9
	c-0.3-0.4-0.6-0.9-0.7-1.4c-0.1-0.5-0.2-1.1-0.1-1.6c0-2.2-2.9-2.5-4.2-2.5h-24c-0.6-0.1-1.2,0-1.7,0.3c-0.5,0.3-1,0.7-1.4,1.2
	c-0.7,1.2-0.5,2.9,0.5,4.8l1.3,2.7c0.8,1.6,1.2,3.4,1.2,5.1V258c0,3-1.4,4.7-3.9,4.7L348.5,262.8z"/>
<linearGradient id="SVGID_4_" gradientUnits="userSpaceOnUse" x1="348.8142" y1="124.3707" x2="368.1572" y2="92.4687" gradientTransform="matrix(1 0 0 -1 0 457.8898)">
	<stop  offset="0" style="stop-color:#F7E79B"/>
	<stop  offset="1" style="stop-color:#57A49E"/>
</linearGradient>
<path class="st4" d="M360.8,340.7h17.5c2.8,0,3.9,1.9,2.5,4.4l-12.4,24c-0.4,0.8-1,1.5-1.8,2c-0.7,0.5-1.6,0.6-2.4,0.6h-17.5
	c-2.8,0-3.9-1.9-2.5-4.4l12.4-24c0.4-0.8,1.1-1.5,1.8-1.9C359.2,340.9,360,340.7,360.8,340.7z"/>
<linearGradient id="SVGID_5_" gradientUnits="userSpaceOnUse" x1="426.9223" y1="124.3728" x2="407.5793" y2="92.4698" gradientTransform="matrix(1 0 0 -1 0 457.8898)">
	<stop  offset="0" style="stop-color:#F7E79B"/>
	<stop  offset="1" style="stop-color:#57A49E"/>
</linearGradient>
<path class="st5" d="M414.9,340.7h-17.5c-2.8,0-3.9,1.9-2.5,4.4l12.4,24c0.4,0.8,1,1.5,1.8,2c0.7,0.5,1.6,0.6,2.4,0.6H429
	c2.8,0,3.9-1.9,2.5-4.4l-12.4-24c-0.4-0.8-1.1-1.5-1.8-1.9C416.6,340.9,415.7,340.7,414.9,340.7z"/>
<linearGradient id="SVGID_6_" gradientUnits="userSpaceOnUse" x1="38.279" y1="417.0909" x2="153.0697" y2="310.5656" gradientTransform="matrix(1 0 0 -1 0 457.8898)">
	<stop  offset="0" style="stop-color:#F7E79B"/>
	<stop  offset="1" style="stop-color:#57A49E"/>
</linearGradient>
<path class="st6" d="M43.9,66.2l44.8-7.6c3-0.5,5.1,1.4,5.7,5.2L112,174.4c0.6,3.8-0.8,6.3-3.8,6.8l-40.8,6.9
	c-3,0.5-5.1-1.4-5.7-5.2L45.4,80.9c-0.3-1.7-0.9-3.2-1.9-4.6L41,72.8C38.7,69.7,40.1,66.9,43.9,66.2z M83.2,164.5l2.7-0.5
	c2.1-0.4,3-1.9,2.5-4.5L76.7,85.4c-0.4-2.7-1.7-3.8-3.8-3.4l-2.8,0.5c-2.1,0.4-3,1.9-2.5,4.5l11.8,74.3
	C79.8,163.7,81.1,164.9,83.2,164.5L83.2,164.5z M103.5,50.8L167,39.9c3-0.5,5.1,1.4,5.7,5.2l1.1,7c0.6,3.8-0.8,6.3-3.8,6.8
	l-13.9,2.4c-2.1,0.4-3,1.9-2.5,4.5L170,169c1.2,7.4-2.8,14-8.7,15l-23.2,3.9c-4,0.7-5.8-2.5-3.9-6.9l4.4-10c0.7-1.6,0.9-3.5,0.6-5.2
	l-15.1-95.1c-0.4-2.7-1.7-3.8-3.8-3.4l-14,2.4c-3,0.5-5.1-1.4-5.7-5.2l-1.1-7C99,53.8,100.4,51.3,103.5,50.8L103.5,50.8z"/>
<linearGradient id="SVGID_7_" gradientUnits="userSpaceOnUse" x1="177.705" y1="438.9458" x2="294.952" y2="332.6992" gradientTransform="matrix(1 0 0 -1 0 457.8898)">
	<stop  offset="0" style="stop-color:#F7E79B"/>
	<stop  offset="1" style="stop-color:#57A49E"/>
</linearGradient>
<path class="st7" d="M190.1,39.7l37.8-6.4c3-0.5,5.1,1.4,5.7,5.2l19,119.5c0.6,3.8-0.8,6.3-3.8,6.8l-33.8,5.8
	c-3,0.5-5.1-1.4-5.7-5.2l-17.6-111c-0.2-1.7-0.9-3.2-1.9-4.6l-2.5-3.5C184.9,43.2,186.3,40.3,190.1,39.7z M229.1,150.8
	c1.8-0.3,2.6-1.9,2.2-4.5l-14.3-89.7c-0.4-2.6-1.7-3.8-3.5-3.5c-1.8,0.3-2.6,1.9-2.2,4.5l14.3,89.7
	C226,149.9,227.4,151.1,229.1,150.8z M325.9,97.5l-17.6,3c-1.1,0.2-2.2,0.2-3.3-0.1c-1.1-0.3-2.1-0.8-3-1.5L292,92
	c-0.3-0.3-0.7-0.5-1.1-0.6c-0.4-0.1-0.8-0.2-1.3-0.1c-0.4,0.1-0.8,0.2-1.2,0.4c-0.4,0.2-0.7,0.5-0.9,0.9l-9.5,11
	c-1.4,1.7-3.4,2.9-5.5,3.2l-17.8,3c-3,0.5-5.1-1.2-5.7-5.2l-1.2-6.6c-0.6-3.8,0.8-6.3,3.8-6.8l8.7-1.5c1.5-0.1,2.8-0.9,3.8-2
	l5.5-6.3c0.4-0.4,0.7-0.8,0.9-1.4s0.2-1.1,0.2-1.6c-0.1-0.5-0.3-1.1-0.6-1.5c-0.3-0.5-0.7-0.8-1.2-1.1l-10.4-7.2
	c-0.6-0.5-1.3-0.8-2-1c-0.7-0.2-1.5-0.2-2.2-0.1l-6.7,1.1c-3.7,0.6-5.6-1.9-4.6-6.4l6.4-28.5c0.5-2.1,0.4-3.5-0.2-4.1
	c-3-3.6-2.3-7.1,1.7-7.8l19.7-3.4c3.7-0.6,6,0.8,5.3,3.8c-0.7,2.8,0.6,4.6,3,4.2l31.4-5.4c3-0.5,5.1,1.4,5.7,5.2l3.9,24.3
	c0.3,1.4,0.2,2.8-0.1,4.1c-0.4,1.3-1,2.6-1.9,3.6L306,71.9c-0.4,0.4-0.7,0.8-0.9,1.4c-0.2,0.5-0.2,1.1-0.2,1.6
	c0.1,0.6,0.3,1.1,0.6,1.5c0.3,0.5,0.7,0.8,1.2,1.1l2.9,2c0.6,0.4,1.3,0.8,2,0.9c0.7,0.2,1.5,0.2,2.2,0l9.1-1.5
	c3-0.5,5.1,1.4,5.7,5.2l1.1,6.8C330.3,94.5,328.9,97,325.9,97.5L325.9,97.5z M334.8,142.4l0.8,5.2c0.6,4-0.8,6.3-4,6.6l-69.1,5.4
	c-3,0.3-5-1.6-5.6-5.4l-0.9-5.6c-0.6-4,0.8-6.3,4-6.6l69.2-5C332.2,136.7,334.2,138.6,334.8,142.4L334.8,142.4z M327.5,115l0.9,6.8
	c0.6,3.8-1,6.3-4,6.6l-58.9,5.3c-3.1,0.3-5-1.6-5.6-5.4l-1.1-6.8c-0.6-4,1-6.3,4-6.6l59-5.3C325,109.3,326.8,111,327.5,115
	L327.5,115z M293.5,42.5l-21.1,3.6c-0.8,0.1-1.5,0.4-2,0.9s-0.9,1.3-1.1,2c-0.2,0.9-0.1,1.8,0.3,2.5c0.4,0.8,1,1.4,1.8,1.8l12.1,8.4
	c0.3,0.3,0.7,0.5,1.1,0.6c0.4,0.1,0.8,0.2,1.3,0.1s0.8-0.2,1.2-0.4c0.4-0.2,0.7-0.5,0.9-0.9l8.3-9.4c0.6-0.7,1-1.6,1.2-2.5
	c0.2-0.9,0.2-1.9,0-2.8l-0.1-0.8C296.9,43.4,295.5,42.2,293.5,42.5L293.5,42.5z"/>
<linearGradient id="SVGID_8_" gradientUnits="userSpaceOnUse" x1="342.167" y1="385.9818" x2="389.01" y2="380.7923" gradientTransform="matrix(1 0 0 -1 0 457.8898)">
	<stop  offset="0" style="stop-color:#F7E79B"/>
	<stop  offset="1" style="stop-color:#57A49E"/>
</linearGradient>
<path class="st8" d="M379.1,17.1l12.5,78.8c0.6,3.8-0.8,6.3-3.8,6.8l-15.8,2.7c-3,0.5-5.1-1.4-5.7-5.2l-12.5-78.8
	c-0.6-3.8,0.8-6.3,3.8-6.8l15.9-2.7C376.4,11.5,378.5,13.4,379.1,17.1z M395,116.8l2.1,12.9c0.6,3.8-0.8,6.3-3.8,6.8l-15.8,2.7
	c-3,0.5-5.1-1.4-5.7-5.2l-2.1-12.9c-0.6-3.8,0.8-6.3,3.8-6.8l15.9-2.7C392.3,111.1,394.4,113,395,116.8z"/>
<g>
	<linearGradient id="SVGID_9_" gradientUnits="userSpaceOnUse" x1="271.171" y1="361.2442" x2="350.1589" y2="264.7347">
		<stop  offset="0" style="stop-color:#F7E79B"/>
		<stop  offset="1" style="stop-color:#57A49E"/>
	</linearGradient>
	<path class="st9" d="M331.9,227.6l-26.7,7.1c-2.7,0.9-4.3,3.1-4.3,6.7v10.9c0,4.2,2.1,6,5.3,5.2c1.8-0.4,2.7,1.2,2.7,3.8v103
		c0,3.8,1.8,6,4.8,6h18.7c3.1,0,4.8-2.2,4.8-6V233.1C337.2,228.9,335.1,226.8,331.9,227.6z"/>
	<linearGradient id="SVGID_10_" gradientUnits="userSpaceOnUse" x1="338.58" y1="356.8701" x2="422.8369" y2="253.9228">
		<stop  offset="0" style="stop-color:#F7E79B"/>
		<stop  offset="1" style="stop-color:#57A49E"/>
	</linearGradient>
	<path class="st10" d="M405.6,251.7h21.2c3.1,0,4.8-2.2,4.8-6v-7.1c0-3.8-1.8-6-4.8-6h-21.2c-0.4,0.1-0.9,0-1.3-0.1
		c-0.4-0.2-0.8-0.4-1.1-0.7c-0.3-0.3-0.5-0.7-0.7-1.2c-0.1-0.4-0.2-0.9-0.1-1.4c0-2-1.8-3.2-4.8-3.2h-24c-3.9,0-5.3,3.2-3.2,7.3
		l1.3,2.6c0.7,1.5,1.1,3.2,1.1,4.8v17.5c0,2.7-1.1,4-3.2,4h-21.1c-3.1,0-4.8,2.2-4.8,6v63.5c0,3.8,1.8,6,4.8,6h7.4l65.8-0.2h5
		c3.1,0,4.8-2.2,4.8-6v-63.3c0-3.8-1.8-6-4.8-6h-21.1c-2.1,0-3.2-1.3-3.2-4v-2.4C402.4,253,403.5,251.7,405.6,251.7z M406.7,314.6
		c0,3.6-2.9,6.5-6.5,6.5h-24c-3.6,0-6.5-2.9-6.5-6.5V310h37V314.6z M406.7,293.8v8.4v1.3c0,0.7-0.6,1.3-1.3,1.3H371
		c-0.7,0-1.3-0.6-1.3-1.3v-1.3v-8.4v-1.3c0-0.7,0.6-1.3,1.3-1.3h34.4c0.7,0,1.3,0.6,1.3,1.3V293.8z M406.7,281.5v4.5h-37v-4.5
		c0-3.6,2.9-6.5,6.5-6.5h24C403.8,275,406.7,277.9,406.7,281.5z"/>
</g>
<linearGradient id="SVGID_11_" gradientUnits="userSpaceOnUse" x1="460.3853" y1="49.8768" x2="460.3853" y2="1.8108" gradientTransform="matrix(1 0 0 -1 0 457.8898)">
	<stop  offset="0" style="stop-color:#78B29E"/>
	<stop  offset="0.7251" style="stop-color:#B9C59E"/>
	<stop  offset="1" style="stop-color:#58A49E"/>
</linearGradient>
<path class="st11" d="M480.4,456.1h-39c-1,0-1.6-0.8-1.6-2.1v-28.8c0-0.6-0.1-1.2-0.4-1.7l-0.4-0.9c-0.7-1.4-0.2-2.5,1.1-2.5h8.2
	c1,0,1.6,0.8,1.6,2.1v3.2c0,0.9,0.4,1.4,1.1,1.4h18c0.7,0,1.1-0.5,1.1-1.4v-9.2c0-0.9-0.4-1.4-1.1-1.4h-28.5c-1,0-1.6-0.8-1.6-2.1
	v-2.5c0-1.3,0.6-2.1,1.6-2.1h38c1,0,1.6,0.8,1.6,2.1v21.1c0,1.3-0.6,2.1-1.6,2.1h-27.5c-0.7,0-1.1,0.5-1.1,1.4v11.9
	c0,0.9,0.4,1.4,1.1,1.4l26.7,0.1c0.3,0,0.5-0.1,0.7-0.2c0.2-0.1,0.4-0.3,0.5-0.5l1.2-1.6c1-1.3,2-0.8,2,1.1v7
	C482,455.3,481.4,456.1,480.4,456.1z"/>
<linearGradient id="SVGID_12_" gradientUnits="userSpaceOnUse" x1="508.538" y1="51.1888" x2="508.538" y2="1.8348" gradientTransform="matrix(1 0 0 -1 0 457.8898)">
	<stop  offset="0" style="stop-color:#78B29E"/>
	<stop  offset="0.7251" style="stop-color:#B9C59E"/>
	<stop  offset="1" style="stop-color:#58A49E"/>
</linearGradient>
<path class="st12" d="M489,449.4h11.4c0.7,0,1.1-0.5,1.1-1.4v-36.2c0-0.6-0.1-1.2-0.4-1.7l-0.4-0.9c-0.7-1.4-0.2-2.5,1.1-2.5h8.2
	c1,0,1.6,0.8,1.6,2.1V424c0,0.9,0.4,1.4,1.1,1.4H527c1,0,1.6,0.8,1.6,2.1v2.5c0,1.3-0.6,2.1-1.6,2.1h-14.4c-0.7,0-1.1,0.5-1.1,1.4
	V448c0,0.9,0.4,1.4,1.1,1.4H528c1,0,1.6,0.8,1.6,2.1v2.5c0,1.3-0.6,2.1-1.6,2.1h-39c-1,0-1.6-0.8-1.6-2.1v-2.4
	C487.5,450.2,488,449.4,489,449.4z"/>
<linearGradient id="SVGID_13_" gradientUnits="userSpaceOnUse" x1="545.0123" y1="51.7972" x2="545.0123" y2="1.2738" gradientTransform="matrix(1 0 0 -1 0 457.8898)">
	<stop  offset="0" style="stop-color:#78B29E"/>
	<stop  offset="0.7251" style="stop-color:#B9C59E"/>
	<stop  offset="1" style="stop-color:#58A49E"/>
</linearGradient>
<path class="st13" d="M539.5,443l-1.6,10.5c-0.2,1.1-0.5,1.7-1.1,1.7h-3.4c-0.7,0-1-1-0.7-2.4l1.6-10.5c0.2-1.1,0.5-1.7,1.1-1.7h3.4
	C539.4,440.7,539.7,441.7,539.5,443z M533.5,434.8v-3.4c0-0.9,0.1-1.8,0.5-2.6l2.5-5c0.4-0.8,0.3-1.8-0.3-1.8h-1.9
	c-0.6,0-0.9-0.8-0.9-2.1v-3.4c-0.1-0.9,0.2-1.7,0.6-2.5l5.9-7.3c0.1-0.2,0.3-0.4,0.5-0.5c0.2-0.1,0.4-0.2,0.7-0.2h4.2
	c0.9,0,1.1,1.5,0.3,2.5l-3.1,3.8c-0.5,0.6-0.4,1.7,0.2,1.7h11c0.6,0,0.9,0.8,0.9,2.1v3.7c0,1.3-0.3,2.1-0.9,2.1h-9.4
	c-0.3,0-0.5,0.2-0.8,0.6l-2.6,4.6c-0.5,0.8-0.3,1.8,0.2,1.8h8.1c0.4,0,0.6-0.6,0.5-1.5l-0.1-1.2c-0.2-1.4,0.2-2.3,0.8-2.3h3.4
	c0.6,0,0.9,0.6,1.1,1.8l1.3,11.2c0.2,1.4-0.1,2.3-0.8,2.3h-3.4c-0.6,0-0.9-0.5-1-1.3c-0.1-0.8-0.3-1.2-0.7-1.2h-2.1
	c-0.4,0-0.6,0.5-0.6,1.4V452c0,2.7-0.9,4.6-2.1,4.6h-4.7c-0.8,0-1-1.2-0.5-2.6l1.2-3.2c0.2-0.6,0.3-1.2,0.3-1.8v-10.8
	c0-0.9-0.2-1.4-0.6-1.4h-6.7C533.8,436.9,533.5,436.1,533.5,434.8L533.5,434.8z M555.1,442.3l2.1,10.7c0.3,1.5,0,2.5-0.7,2.5h-3.3
	c-0.5,0-0.9-0.6-1.1-1.6l-2.1-10.7c-0.3-1.5,0-2.5,0.7-2.5h3.3C554.5,440.7,554.9,441.2,555.1,442.3L555.1,442.3z"/>
<linearGradient id="SVGID_14_" gradientUnits="userSpaceOnUse" x1="574.2061" y1="51.7728" x2="574.2061" y2="1.3458" gradientTransform="matrix(1 0 0 -1 0 457.8898)">
	<stop  offset="0" style="stop-color:#78B29E"/>
	<stop  offset="0.7251" style="stop-color:#B9C59E"/>
	<stop  offset="1" style="stop-color:#58A49E"/>
</linearGradient>
<path class="st14" d="M559.6,434.1h8.9c0.9,0,1.3,1,0.9,2.5l-4,17.3c-0.2,1.1-0.7,1.6-1.3,1.6H560c-0.9,0-1.3-1-0.9-2.5l2.9-11.8
	c0.2-1,0-1.6-0.6-1.6h-1.8c-0.7,0-1.2-0.8-1.2-2.1v-1.3C558.5,434.8,558.9,434.1,559.6,434.1z M569.8,456.5c-1,0-1.3-1.3-0.6-2.6
	l1.5-3c0.3-0.6,0.4-1.2,0.4-1.8v-16.3c0-0.9-0.3-1.4-0.8-1.4h-8.4c-0.7,0-1.2-0.8-1.2-2.1v-14.2c0-0.6-0.1-1.1-0.3-1.7l-0.3-0.9
	c-0.5-1.4-0.2-2.5,0.8-2.5h5.6c0.2,0,0.4,0,0.5-0.1c0.2-0.1,0.3-0.2,0.3-0.4c0.1-0.1,0.1-0.2,0.2-0.4c0-0.1,0-0.3,0-0.4
	c-0.6-1.4-0.3-2.6,0.7-2.6h7.2c0.9,0,1.3,0.8,1,2l-0.1,0.3c-0.3,0.9-0.1,1.7,0.5,1.7h10.6c0.7,0,1.2,0.8,1.2,2.1v17.2
	c0,1.3-0.4,2.1-1.2,2.1h-8.6c-0.5,0-0.8,0.5-0.8,1.4V452c0,2.7-1.3,4.5-2.7,4.5H569.8z M567,416.5v0.2c0,0.9,0.3,1.4,0.8,1.4h14.2
	c0.5,0,0.8-0.5,0.8-1.4v-0.2c0-0.9-0.3-1.4-0.8-1.4h-14.2C567.2,415.1,567,415.6,567,416.5z M567.8,426h14.2c0.5,0,0.8-0.5,0.8-1.4
	v-0.3c0-0.9-0.3-1.4-0.8-1.4h-14.2c-0.5,0-0.8,0.5-0.8,1.4v0.3C567,425.5,567.2,426,567.8,426L567.8,426z M583.8,433.3h4.1
	c1,0,1.3,1.3,0.5,2.6l-3,4.8c-0.2,0.3-0.3,0.6-0.3,1c0,0.3,0.1,0.7,0.2,1l4.3,10.1c0.6,1.4,0.3,2.6-0.7,2.6h-3.6
	c-0.6,0-1.1-0.3-1.4-1.3l-4.8-10.9c-0.2-0.5-0.3-1-0.3-1.5c0-0.5,0.1-1,0.4-1.5l3.1-5.8C582.8,433.7,583.2,433.3,583.8,433.3
	L583.8,433.3z"/>
<path class="st15" d="M419.6,442.4c3.7,0,6.8-3.1,6.8-6.9c0-3.8-3-6.9-6.8-6.9c-3.7,0-6.8,3.1-6.8,6.9
	C412.8,439.3,415.9,442.4,419.6,442.4z"/>
<path class="st16" d="M194.3,274.4c-6.6-3.2-14.4-1.6-19.4,3.9c-6.7,7.4-5.7,19.1,2.1,25.2l20.5,16l4-2.9
	c14.4-10.2,12.6-32.6-3.3-40.3L194.3,274.4z"/>
<path class="st16" d="M201.3,274.4c6.6-3.2,14.4-1.6,19.4,3.9c6.7,7.4,5.7,19.1-2.1,25.2l-20.5,16l-4-2.9
	c-14.4-10.2-12.6-32.6,3.3-40.3L201.3,274.4z"/>
<linearGradient id="SVGID_15_" gradientUnits="userSpaceOnUse" x1="201.2248" y1="211.459" x2="196.2518" y2="153.671" gradientTransform="matrix(1 0 0 -1 0 457.8898)">
	<stop  offset="5.925250e-02" style="stop-color:#FDEC9A"/>
	<stop  offset="0.3155" style="stop-color:#FCA562"/>
	<stop  offset="0.7054" style="stop-color:#FF4E5E"/>
	<stop  offset="1" style="stop-color:#FB429F"/>
</linearGradient>
<path class="st17" d="M174.9,273.3c4.9-6.1,12.8-7.9,19.4-4.3l3.5,1.9l3.5-1.9c6.6-3.6,14.4-1.8,19.4,4.3c6.7,8.3,5.7,21.4-2.2,28.2
	l-20.5,17.9l-0.3-0.2l-0.3,0.2l-20.5-17.9C169.2,294.7,168.3,281.6,174.9,273.3z"/>
<path class="st16" d="M210.8,277.5L210.8,277.5c1.3-0.6,2.9,0,3.4,1.3l2,4.6c0.6,1.3,0,2.9-1.4,3.6h0c-1.3,0.6-2.9,0-3.4-1.3l-2-4.6
	C208.9,279.7,209.5,278.1,210.8,277.5z"/>
</svg>
